<?xml version="1.0" standalone="no"?><!DOCTYPE svg PUBLIC "-//W3C//DTD SVG 1.1//EN" "http://www.w3.org/Graphics/SVG/1.1/DTD/svg11.dtd"><svg t="1634263753156" class="icon" viewBox="0 0 1024 1024" version="1.1" xmlns="http://www.w3.org/2000/svg" p-id="5400" xmlns:xlink="http://www.w3.org/1999/xlink" width="64" height="64"><defs><style type="text/css"></style></defs><path d="M576 701.6v-65.6c55.2-14.4 96-64 96-124s-40.8-109.6-96-124v-65.6C666.4 337.6 736 416.8 736 512s-69.6 174.4-160 189.6z m0-568v64.8c145.6 29.6 256 159.2 256 313.6 0 154.4-110.4 284-256 313.6v64.8c181.6-30.4 320-188 320-378.4S757.6 164 576 133.6zM256 384H128v256h128l256 256V128L256 384z" p-id="5401" fill="#c3ad86"></path></svg>