<?xml version="1.0" standalone="no"?><!DOCTYPE svg PUBLIC "-//W3C//DTD SVG 1.1//EN" "http://www.w3.org/Graphics/SVG/1.1/DTD/svg11.dtd"><svg t="1640920106357" class="icon" viewBox="0 0 1024 1024" version="1.1" xmlns="http://www.w3.org/2000/svg" p-id="4191" width="64" height="64" xmlns:xlink="http://www.w3.org/1999/xlink"><defs><style type="text/css"></style></defs><path d="M848.649122 959.191703H175.387003c-61.990545 0-112.168207-50.177662-112.168207-112.168208V173.761377c0-62.02667 50.177662-112.204332 112.168207-112.204332h673.262119c61.990545 0 112.168207 50.177662 112.168207 112.204332v673.262118c0 61.990545-50.177662 112.168207-112.168207 112.168208zM904.787413 173.761377c0-30.959148-25.179143-56.138291-56.138291-56.138291H175.387003c-30.959148 0-56.138291 25.179143-56.138291 56.138291v673.262118c0 30.959148 25.179143 56.138291 56.138291 56.138291h673.262119c30.959148 0 56.138291-25.179143 56.138291-56.138291V173.761377z m-224.44479 364.646017h-140.309602v140.309603c0 15.497636-12.535384 28.033021-28.033021 28.033021-15.497636 0-28.033021-12.535384-28.033021-28.033021v-140.309603H343.693502a28.033021 28.033021 0 0 1-28.033021-28.03302c0-15.497636 12.535384-28.033021 28.033021-28.033021h140.309602V342.067876c0-15.497636 12.535384-28.033021 28.033021-28.033021 15.497636 0 28.033021 12.535384 28.033021 28.033021v140.273477h140.309602a28.033021 28.033021 0 0 1 28.033021 28.033021c-0.07225 15.497636-12.607634 28.033021-28.069146 28.03302z" fill="#c3ad86" p-id="4192"></path></svg>