<?xml version="1.0" standalone="no"?><!DOCTYPE svg PUBLIC "-//W3C//DTD SVG 1.1//EN" "http://www.w3.org/Graphics/SVG/1.1/DTD/svg11.dtd"><svg t="1630636986133" class="icon" viewBox="0 0 1024 1024" version="1.1" xmlns="http://www.w3.org/2000/svg" p-id="2142" xmlns:xlink="http://www.w3.org/1999/xlink" width="48" height="48"><defs><style type="text/css"></style></defs><path d="M981.149 982.828c-12.104 11.89-31.726 11.89-43.83 0L689.107 737.975c-69.264 55.454-157.459 88.78-253.597 88.78-222.511 0-402.951-177.934-402.951-397.405 0-219.472 180.44-397.352 402.951-397.352 222.511 0 402.951 177.88 402.951 397.352 0 102.644-39.832 195.849-104.563 266.341L981.15 939.583a30.289 30.289 0 0 1 0 43.244zM776.448 429.352c0-185.719-152.66-336.246-340.938-336.246S94.572 243.633 94.572 429.352s152.66 336.246 340.938 336.246 340.938-150.527 340.938-336.246z m-189.504 34.979H467.291v120.08c0 16.583-13.384 30.02-29.86 30.02-16.53 0-29.914-13.437-29.914-30.02v-120.08H287.864c-16.477 0-29.86-21.435-29.86-38.018 0-16.583 13.384-22.022 29.86-22.022h119.653v-120.08c0-16.583 13.384-30.02 29.914-30.02 16.477 0 29.86 13.437 29.86 30.02v120.08h119.653c16.477 0 29.914 13.437 29.914 30.02s-13.437 30.02-29.914 30.02z" p-id="2143" fill="#ffffff"></path></svg>