<?xml version="1.0" standalone="no"?><!DOCTYPE svg PUBLIC "-//W3C//DTD SVG 1.1//EN" "http://www.w3.org/Graphics/SVG/1.1/DTD/svg11.dtd"><svg t="1631943760775" class="icon" viewBox="0 0 1024 1024" version="1.1" xmlns="http://www.w3.org/2000/svg" p-id="4743" xmlns:xlink="http://www.w3.org/1999/xlink" width="64" height="64"><defs><style type="text/css"></style></defs><path d="M466.14176845 169.27005744c15.68834269 15.68834269 39.82425392 15.68834198 55.5125959 0 15.68834269-15.68834269 15.68834198-39.82425392 7.1e-7-55.5125966s-39.82425392-15.68834198-55.51259731 0c-14.48154688 16.8951385-14.48154688 41.03104902 7e-7 55.5125966z" fill="#ffffff" p-id="4744"></path><path d="M165.64967072 793.18336833c47.06502736 47.06502736 124.29994357 47.06502736 171.36497093 0s47.06502736-124.29994357 0-171.36497093-124.29994357-47.06502736-171.36497093 0S118.58464336 746.11834097 165.64967072 793.18336833z" fill="#ffffff" p-id="4745"></path><path d="M112.55066503 452.86701668a143.36 143.36 0 1 0 202.7416563-202.74165631 143.36 143.36 0 1 0-202.7416563 202.74165631Z" fill="#ffffff" p-id="4746"></path><path d="M462.52138103 935.5852462c42.23784483 42.23784483 112.23198831 42.23784553 154.46983384 0 42.23784483-42.23784483 42.23784553-112.23198831 0-154.46983384-42.23784483-42.23784483-112.23198831-42.23784553-154.46983314 7e-7-42.23784483 42.23784483-43.44464064 111.02519321-7e-7 154.46983314z" fill="#ffffff" p-id="4747"></path><path d="M748.53193259 804.04452848c36.2038672 36.2038672 96.54364633 36.2038672 132.74751282 7.1e-7s36.2038672-96.54364633 0-132.74751352-96.54364633-36.2038672-132.74751353 0c-37.41066301 37.41066301-36.2038672 96.54364633 7.1e-7 132.74751281z" fill="#ffffff" p-id="4748"></path><path d="M843.86878311 551.82425392c31.37668467 31.37668467 83.26889455 32.58348048 115.85237503 0 31.37668467-31.37668467 32.58348048-83.26889455 0-115.85237503-31.37668467-31.37668467-83.26889455-32.58348048-115.85237503 0-31.37668467 33.79027629-31.37668467 84.47569036 0 115.85237503z" fill="#ffffff" p-id="4749"></path><path d="M779.90861726 326.15348219c27.75629795 27.75629795 71.20093858 27.75629795 98.95723724-7e-7s27.75629795-71.20093858 0-98.95723654-71.20093858-27.75629795-98.95723724-7e-7c-26.54950285 26.54950285-27.75629795 71.20093858 0 98.95723794z" fill="#ffffff" p-id="4750"></path><path d="M637.50673938 195.81955958c20.51552451 20.51552451 54.3058008 20.51552522 74.82132601 0s20.51552522-54.3058008-7.1e-7-74.8213253c-20.51552451-20.51552451-54.3058008-20.51552522-74.82132459 0s-20.51552522 54.3058008-7.1e-7 74.8213253z" fill="#ffffff" p-id="4751"></path></svg>