<?xml version="1.0" standalone="no"?><!DOCTYPE svg PUBLIC "-//W3C//DTD SVG 1.1//EN" "http://www.w3.org/Graphics/SVG/1.1/DTD/svg11.dtd"><svg t="1644375745700" class="icon" viewBox="0 0 1024 1024" version="1.1" xmlns="http://www.w3.org/2000/svg" p-id="3057" width="64" height="64" xmlns:xlink="http://www.w3.org/1999/xlink"><defs><style type="text/css"></style></defs><path d="M563.2 870.4c-0.7 14.2-5.9 26.1-15.5 35.7-9.6 9.6-21.5 14.4-35.7 14.4s-26.1-4.8-35.7-14.4c-9.6-9.6-14.4-21.5-14.4-35.7s4.8-26.1 14.4-35.7c9.6-9.6 21.5-14.4 35.7-14.4s26.1 4.8 35.7 14.4c9.6 9.6 14.8 21.5 15.5 35.7zM238.9 1024c-29.1-0.7-53.3-10.7-72.5-29.9s-29.2-43.4-29.9-72.5V102.4c0.7-29.1 10.7-53.3 29.9-72.5S209.8 0.7 238.9 0H785c29.1 0.7 53.3 10.7 72.5 29.9s29.2 43.4 29.9 72.5v819.2c-0.7 29.1-10.7 53.3-29.9 72.5s-43.4 29.2-72.5 29.9H238.9z m-34.1-307.2h614.4V136.5c-0.7-19.2-7.5-35.2-20.3-48s-28.8-19.5-48-20.3H273.1c-19.2 0.7-35.2 7.5-48 20.3s-19.5 28.8-20.3 48v580.3z m0 68.3v102.4c0.7 19.2 7.5 35.2 20.3 48s28.8 19.5 48 20.3H751c19.2-0.7 35.2-7.5 48-20.3s19.5-28.8 20.3-48V785.1H204.8z" p-id="3058" fill="#A98B60"></path></svg>