<?xml version="1.0" standalone="no"?><!DOCTYPE svg PUBLIC "-//W3C//DTD SVG 1.1//EN" "http://www.w3.org/Graphics/SVG/1.1/DTD/svg11.dtd"><svg t="1644388670622" class="icon" viewBox="0 0 1024 1024" version="1.1" xmlns="http://www.w3.org/2000/svg" p-id="710" width="64" height="64" xmlns:xlink="http://www.w3.org/1999/xlink"><defs><style type="text/css"></style></defs><path d="M752.426667 330.666667c0-135.253333-110.08-245.333333-245.333334-245.333334s-245.333333 110.08-245.333333 245.333334c0 77.013333 35.626667 145.706667 91.306667 190.72C205.866667 582.186667 101.973333 727.04 101.76 896c0 23.466667 19.2 42.666667 42.666667 42.666667s42.666667-19.2 42.666666-42.666667c0-176.426667 143.573333-320 320-320 135.466667 0 245.333333-110.08 245.333334-245.333333zM507.093333 170.666667c88.32 0 160 71.68 160 160s-71.68 160-160 160-160-71.68-160-160S418.986667 170.666667 507.093333 170.666667zM920.106667 693.973333c-5.12-15.36-18.346667-26.666667-34.346667-29.013333l-88.746667-13.013333-39.68-80.426667a42.666667 42.666667 0 0 0-38.186666-23.68c-16.213333 0-31.146667 9.173333-38.186667 23.893333l-39.68 80.426667-88.746667 13.013333a42.602667 42.602667 0 0 0-23.466666 72.746667l64.213333 62.72-15.146667 88.533333a42.666667 42.666667 0 0 0 17.066667 41.813334c13.226667 9.6 30.506667 10.88 45.013333 3.2l79.36-41.813334 79.36 41.813334c6.186667 3.2 13.013333 4.906667 19.84 4.906666 8.746667 0 17.706667-2.773333 25.173334-8.106666 13.226667-9.6 19.626667-25.813333 17.066666-41.813334l-15.146666-88.533333 64.213333-62.72c10.88-11.52 14.933333-28.586667 10.026667-43.946667z m-150.826667 61.013334a42.88 42.88 0 0 0-12.373333 37.76l4.266666 25.386666-22.826666-11.946666c-12.373333-6.613333-27.306667-6.613333-39.68 0l-22.826667 11.946666 4.266667-25.386666c2.346667-13.866667-2.133333-27.946667-12.373334-37.76l-18.346666-17.92 25.386666-3.626667c13.866667-1.92 25.813333-10.666667 32.213334-23.253333l11.306666-23.04 11.306667 23.04c6.186667 12.586667 18.133333 21.333333 32.213333 23.253333l25.386667 3.626667-17.92 17.92z" p-id="711" fill="#A98B60"></path></svg>