<?xml version="1.0" standalone="no"?><!DOCTYPE svg PUBLIC "-//W3C//DTD SVG 1.1//EN" "http://www.w3.org/Graphics/SVG/1.1/DTD/svg11.dtd"><svg t="1635154524149" class="icon" viewBox="0 0 1024 1024" version="1.1" xmlns="http://www.w3.org/2000/svg" p-id="3388" width="64" height="64" xmlns:xlink="http://www.w3.org/1999/xlink"><defs><style type="text/css"></style></defs><path d="M340.9 633.6c7.4-7.4 5.2-19.9-4.3-24.4-48.5-22.6-91-54.5-123.7-94.1-1.5-1.9-1.5-4.6 0-6.4 68.4-82.8 180.2-132.3 299-132.3 24.1 0 47.9 2 71.1 6 4.8 0.8 9.7-0.7 13.1-4.2 8.6-8.6 4-23.4-8-25.4-25-4.2-50.6-6.4-76.2-6.4-64 0-127.6 13.5-183.8 39-54.7 24.8-102.5 60.8-138.4 104.2-10.7 12.9-10.7 31.7 0 44.6 23.5 28.5 52.3 53.9 84.7 74.9 12 7.8 35.5 20.6 49 27.3 5.9 3 12.9 1.8 17.5-2.8zM834.2 489.7c-16.5-20-35.5-38.4-56.6-54.9-21.2-16.6-55-37.7-77.2-47.7-5.8-2.6-12.6-1.3-17.1 3.1-7.5 7.5-5.3 20.2 4.3 24.6 48.4 22.6 90.8 54.5 123.4 94 1.5 1.9 1.5 4.6 0 6.4-68.3 82.8-180.1 132.3-299 132.3-24.1 0-47.9-2-71.1-6-4.8-0.8-9.7 0.7-13.1 4.2-8.6 8.6-4 23.4 8 25.4 25 4.2 50.6 6.4 76.2 6.4 64 0 127.6-13.5 183.8-39 54.7-24.8 102.5-60.8 138.4-104.2 10.7-12.9 10.7-31.7 0-44.6z" fill="#c3ad86" p-id="3389"></path><path d="M417 512c0 13.4 2.8 26.1 7.8 37.7l11.6-11.6 12.1-12.1 77.5-77.5 12.1-12.1 11.6-11.6c-11.6-5-24.3-7.8-37.7-7.8-52.4 0-95 42.6-95 95zM575.5 498L498 575.5l-12.1 12.1-11.6 11.6c11.6 5 24.3 7.8 37.7 7.8 52.4 0 95-42.6 95-95 0-13.4-2.8-26.1-7.8-37.7l-11.6 11.6-12.1 12.1zM467 578.2l10.9-10.9 89.4-89.4 10.9-10.9 10.7-10.7 135.2-135.2c2.9-2.9 4.4-6.8 4.4-10.6s-1.5-7.7-4.4-10.6c-5.9-5.9-15.3-5.9-21.2 0L557 445.8 445.8 557l-10.7 10.7-57.8 57.8-77.4 77.4c-2.9 2.9-4.4 6.8-4.4 10.6s1.5 7.7 4.4 10.6c5.9 5.9 15.3 5.9 21.2 0l64.5-64.5 24.5-24.5 46.2-46.2 10.7-10.7z" fill="#c3ad86" p-id="3390"></path></svg>