<svg xmlns="http://www.w3.org/2000/svg" viewBox="0 0 152.8 194.8"><defs><style>.a{opacity:0.05;}.b{fill:#fff;}.c{fill:#c00000;}</style></defs><title>22</title><rect class="a" x="-21" y="21" width="194.8" height="152.8" rx="17.9" ry="17.9" transform="translate(173.8 21) rotate(90)"/><rect class="a" x="-19.8" y="22.2" width="192.4" height="150.4" rx="16.7" ry="16.7" transform="translate(173.8 21) rotate(90)"/><rect class="a" x="-18.6" y="23.4" width="190" height="148" rx="15.5" ry="15.5" transform="translate(173.8 21) rotate(90)"/><rect class="a" x="-17.7" y="24.3" width="188.2" height="146.2" rx="14.6" ry="14.6" transform="translate(173.8 21) rotate(90)"/><rect class="a" x="-16.9" y="25.1" width="186.6" height="144.6" rx="13.8" ry="13.8" transform="translate(173.8 21) rotate(90)"/><rect class="a" x="-16.2" y="25.8" width="185.2" height="143.2" rx="13.1" ry="13.1" transform="translate(173.8 21) rotate(90)"/><rect class="a" x="-15.6" y="26.4" width="184" height="142" rx="12.5" ry="12.5" transform="translate(173.8 21) rotate(90)"/><rect class="b" x="5.9" y="5.9" width="141" height="183" rx="12" ry="12"/><path class="c" d="M90.52,87.15C85.17,97.78,73.62,116.62,54.76,128a4,4,0,0,0,0,6.8A96.92,96.92,0,0,1,90.5,174.68a4,4,0,0,0,7.21,0,96.92,96.92,0,0,1,35.76-39.88,4,4,0,0,0,0-6.8C114.57,116.62,103,97.78,97.68,87.15A4,4,0,0,0,90.52,87.15Z"/><path class="c" d="M32.64,72.59c-2.4,4.26-7.12,11.12-14.55,15.59a2.18,2.18,0,0,0,0,3.74,40.92,40.92,0,0,1,14.55,15.14,2.19,2.19,0,0,0,3.87,0A40.92,40.92,0,0,1,51,91.92a2.18,2.18,0,0,0,0-3.74c-7.44-4.46-12.16-11.32-14.55-15.59A2.18,2.18,0,0,0,32.64,72.59Z"/><path class="c" d="M13.19,26h.94c6.33,0,8-4.67,8.16-8.21h5.39V66.16H21.11V32.53H13.19Z"/><path class="c" d="M44.37,17.79c7.83,0,11.54,7.67,11.54,24.29S52.2,66.43,44.37,66.43,32.83,58.69,32.83,42.07,36.54,17.79,44.37,17.79Zm0,41.17c3.75,0,4.78-4.67,4.78-16.88s-1-16.81-4.78-16.81-4.78,4.6-4.78,16.81S40.62,59,44.37,59Z"/></svg>