<svg xmlns="http://www.w3.org/2000/svg" viewBox="0 0 152.8 194.8"><defs><style>.a{opacity:0.05;}.b{fill:#fff;}.c{fill:#c00000;}</style></defs><title>24</title><rect class="a" x="-21" y="21" width="194.8" height="152.8" rx="17.9" ry="17.9" transform="translate(173.8 21) rotate(90)"/><rect class="a" x="-19.8" y="22.2" width="192.4" height="150.4" rx="16.7" ry="16.7" transform="translate(173.8 21) rotate(90)"/><rect class="a" x="-18.6" y="23.4" width="190" height="148" rx="15.5" ry="15.5" transform="translate(173.8 21) rotate(90)"/><rect class="a" x="-17.7" y="24.3" width="188.2" height="146.2" rx="14.6" ry="14.6" transform="translate(173.8 21) rotate(90)"/><rect class="a" x="-16.9" y="25.1" width="186.6" height="144.6" rx="13.8" ry="13.8" transform="translate(173.8 21) rotate(90)"/><rect class="a" x="-16.2" y="25.8" width="185.2" height="143.2" rx="13.1" ry="13.1" transform="translate(173.8 21) rotate(90)"/><rect class="a" x="-15.6" y="26.4" width="184" height="142" rx="12.5" ry="12.5" transform="translate(173.8 21) rotate(90)"/><rect class="b" x="5.9" y="5.9" width="141" height="183" rx="12" ry="12"/><path class="c" d="M90.44,87.15C85.09,97.78,73.54,116.62,54.68,128a4,4,0,0,0,0,6.8,96.92,96.92,0,0,1,35.77,39.88,4,4,0,0,0,7.21,0,96.92,96.92,0,0,1,35.76-39.88,4,4,0,0,0,0-6.8C114.49,116.62,103,97.78,97.6,87.15A4,4,0,0,0,90.44,87.15Z"/><path class="c" d="M32.17,72.59c-2.4,4.26-7.12,11.12-14.55,15.59a2.18,2.18,0,0,0,0,3.74,40.92,40.92,0,0,1,14.55,15.14,2.19,2.19,0,0,0,3.87,0A40.92,40.92,0,0,1,50.57,91.92a2.18,2.18,0,0,0,0-3.74C43.11,83.71,38.39,76.85,36,72.59A2.18,2.18,0,0,0,32.17,72.59Z"/><path class="c" d="M48.42,68.16,43.86,63A17.51,17.51,0,0,1,34,66.05c-5.09,0-18.49-2.62-18.49-24.19S28.91,17.66,34,17.66s18.49,2.62,18.49,24.19c0,7.55-1.66,12.8-4,16.39L52.65,63Zm-9.81-21,4.07,4.54a23.85,23.85,0,0,0,1.77-9.86C44.45,29,38.34,25.79,34,25.79S23.55,29,23.55,41.86,29.66,57.92,34,57.92a8.25,8.25,0,0,0,4.34-1.22l-3.86-4.35Z"/></svg>