<svg xmlns="http://www.w3.org/2000/svg" viewBox="0 0 152.8 194.8"><defs><style>.a{opacity:0.05;}.b{fill:#fff;}.c{fill:#c00000;}</style></defs><title>14</title><rect class="a" x="-21" y="21" width="194.8" height="152.8" rx="17.9" ry="17.9" transform="translate(173.8 21) rotate(90)"/><rect class="a" x="-19.8" y="22.2" width="192.4" height="150.4" rx="16.7" ry="16.7" transform="translate(173.8 21) rotate(90)"/><rect class="a" x="-18.6" y="23.4" width="190" height="148" rx="15.5" ry="15.5" transform="translate(173.8 21) rotate(90)"/><rect class="a" x="-17.7" y="24.3" width="188.2" height="146.2" rx="14.6" ry="14.6" transform="translate(173.8 21) rotate(90)"/><rect class="a" x="-16.9" y="25.1" width="186.6" height="144.6" rx="13.8" ry="13.8" transform="translate(173.8 21) rotate(90)"/><rect class="a" x="-16.2" y="25.8" width="185.2" height="143.2" rx="13.1" ry="13.1" transform="translate(173.8 21) rotate(90)"/><rect class="a" x="-15.6" y="26.4" width="184" height="142" rx="12.5" ry="12.5" transform="translate(173.8 21) rotate(90)"/><rect class="b" x="5.9" y="5.9" width="141" height="183" rx="12" ry="12"/><path class="c" d="M89.89,87.15C84.54,97.78,73,116.62,54.13,128a4,4,0,0,0,0,6.8,96.92,96.92,0,0,1,35.77,39.88,4,4,0,0,0,7.21,0,96.92,96.92,0,0,1,35.76-39.88,4,4,0,0,0,0-6.8C113.94,116.62,102.4,97.78,97,87.15A4,4,0,0,0,89.89,87.15Z"/><path class="c" d="M31.42,72.59C29,76.85,24.3,83.71,16.86,88.17a2.18,2.18,0,0,0,0,3.74,40.92,40.92,0,0,1,14.55,15.14,2.19,2.19,0,0,0,3.87,0A40.92,40.92,0,0,1,49.82,91.92a2.18,2.18,0,0,0,0-3.74c-7.44-4.46-12.16-11.32-14.55-15.59A2.18,2.18,0,0,0,31.42,72.59Z"/><path class="c" d="M20.76,34.91c0-15.87,9.06-17.25,12.43-17.25,7.29,0,13.08,5.5,13.08,15.39,0,8.38-4.23,12.64-7.93,15.87-5,4.54-7.66,6.73-8.52,9H46.32v8.52h-26c.27-5.7.59-11.68,8.84-19.38,6.86-6.39,9.59-8.86,9.59-14.36,0-3.23-1.61-6.94-5.25-6.94-5.25,0-5.41,5.57-5.47,9.14Z"/></svg>