<svg xmlns="http://www.w3.org/2000/svg" viewBox="0 0 152.8 194.8"><defs><style>.a{opacity:0.05;}.b{fill:#fff;}.c{fill:#c00000;}</style></defs><title>15</title><rect class="a" x="-21" y="21" width="194.8" height="152.8" rx="17.9" ry="17.9" transform="translate(173.8 21) rotate(90)"/><rect class="a" x="-19.8" y="22.2" width="192.4" height="150.4" rx="16.7" ry="16.7" transform="translate(173.8 21) rotate(90)"/><rect class="a" x="-18.6" y="23.4" width="190" height="148" rx="15.5" ry="15.5" transform="translate(173.8 21) rotate(90)"/><rect class="a" x="-17.7" y="24.3" width="188.2" height="146.2" rx="14.6" ry="14.6" transform="translate(173.8 21) rotate(90)"/><rect class="a" x="-16.9" y="25.1" width="186.6" height="144.6" rx="13.8" ry="13.8" transform="translate(173.8 21) rotate(90)"/><rect class="a" x="-16.2" y="25.8" width="185.2" height="143.2" rx="13.1" ry="13.1" transform="translate(173.8 21) rotate(90)"/><rect class="a" x="-15.6" y="26.4" width="184" height="142" rx="12.5" ry="12.5" transform="translate(173.8 21) rotate(90)"/><rect class="b" x="5.9" y="5.9" width="141" height="183" rx="12" ry="12"/><path class="c" d="M90.5,87.15C85.14,97.78,73.6,116.62,54.73,128a4,4,0,0,0,0,6.8,96.92,96.92,0,0,1,35.77,39.88,4,4,0,0,0,7.21,0,96.92,96.92,0,0,1,35.76-39.88,4,4,0,0,0,0-6.8C114.54,116.62,103,97.78,97.65,87.15A4,4,0,0,0,90.5,87.15Z"/><path class="c" d="M32,72.59c-2.4,4.26-7.12,11.12-14.55,15.59a2.18,2.18,0,0,0,0,3.74,40.92,40.92,0,0,1,14.55,15.14,2.19,2.19,0,0,0,3.87,0A40.92,40.92,0,0,1,50.35,91.92a2.18,2.18,0,0,0,0-3.74c-7.44-4.46-12.16-11.32-14.55-15.59A2.18,2.18,0,0,0,32,72.59Z"/><path class="c" d="M30.73,37.92h1.18c2.25,0,6.38-.27,6.38-6.43,0-1.74-.64-6.1-4.77-6.1-5.14,0-5.14,6.1-5.14,7.77h-7c0-8.91,4-15.27,12.59-15.27,5.09,0,11.79,3.22,11.79,13.26,0,4.82-2.41,7.84-4.55,9v.13C42.57,40.8,47,43.28,47,51.39c0,9-5.31,15.34-13,15.34-3.59,0-13.24-1-13.24-15.88H28.1l-.05.07c0,2.55.54,8.31,5.57,8.31,3,0,5.63-2.55,5.63-7.84,0-6.5-5-6.77-8.52-6.77Z"/></svg>