<svg xmlns="http://www.w3.org/2000/svg" viewBox="0 0 152.8 194.8"><defs><style>.a{opacity:0.05;}.b{fill:#fff;}.c{fill:#c00000;}</style></defs><title>20</title><rect class="a" x="-21" y="21" width="194.8" height="152.8" rx="17.9" ry="17.9" transform="translate(173.8 21) rotate(90)"/><rect class="a" x="-19.8" y="22.2" width="192.4" height="150.4" rx="16.7" ry="16.7" transform="translate(173.8 21) rotate(90)"/><rect class="a" x="-18.6" y="23.4" width="190" height="148" rx="15.5" ry="15.5" transform="translate(173.8 21) rotate(90)"/><rect class="a" x="-17.7" y="24.3" width="188.2" height="146.2" rx="14.6" ry="14.6" transform="translate(173.8 21) rotate(90)"/><rect class="a" x="-16.9" y="25.1" width="186.6" height="144.6" rx="13.8" ry="13.8" transform="translate(173.8 21) rotate(90)"/><rect class="a" x="-16.2" y="25.8" width="185.2" height="143.2" rx="13.1" ry="13.1" transform="translate(173.8 21) rotate(90)"/><rect class="a" x="-15.6" y="26.4" width="184" height="142" rx="12.5" ry="12.5" transform="translate(173.8 21) rotate(90)"/><rect class="b" x="5.9" y="5.9" width="141" height="183" rx="12" ry="12"/><path class="c" d="M91.19,87.15C85.83,97.78,74.29,116.62,55.43,128a4,4,0,0,0,0,6.8,96.92,96.92,0,0,1,35.77,39.88,4,4,0,0,0,7.21,0,96.92,96.92,0,0,1,35.76-39.88,4,4,0,0,0,0-6.8c-18.87-11.38-30.41-30.23-35.76-40.85A4,4,0,0,0,91.19,87.15Z"/><path class="c" d="M32.58,72.59C30.19,76.85,25.46,83.71,18,88.17a2.18,2.18,0,0,0,0,3.74,40.92,40.92,0,0,1,14.55,15.14,2.19,2.19,0,0,0,3.87,0A40.92,40.92,0,0,1,51,91.92a2.18,2.18,0,0,0,0-3.74C43.52,83.71,38.8,76.85,36.4,72.59A2.18,2.18,0,0,0,32.58,72.59Z"/><path class="c" d="M34.49,66.61c-9.81,0-13.18-8-13.18-14.5,0-2.42,0-8.73,5.79-12.09-3-1.88-4.61-4.9-4.61-9.33,0-8.12,5.2-13,11.84-13,7.88,0,12.06,5.84,12.06,12.42,0,4.1-1.34,7.59-4.39,9.6C45.64,42,47.67,45,47.67,51.17S44.57,66.61,34.49,66.61Zm-.11-22.49c-2.73,0-5.36,2.22-5.36,7.39,0,4.57,2.09,7.59,5.52,7.59,3.91,0,5.41-4.23,5.41-7.52S38.56,44.12,34.38,44.12Zm4.82-13c0-3.63-2-5.91-4.39-5.91-3.38,0-5.14,2.42-5.14,5.91,0,2.82,1.66,5.91,4.88,5.91C37.49,37,39.21,34.52,39.21,31.09Z"/></svg>