<svg xmlns="http://www.w3.org/2000/svg" viewBox="0 0 152.8 194.8"><defs><style>.a{opacity:0.05;}.b{fill:#fff;}.c{fill:#c00000;}</style></defs><title>21</title><rect class="a" x="-21" y="21" width="194.8" height="152.8" rx="17.9" ry="17.9" transform="translate(173.8 21) rotate(90)"/><rect class="a" x="-19.8" y="22.2" width="192.4" height="150.4" rx="16.7" ry="16.7" transform="translate(173.8 21) rotate(90)"/><rect class="a" x="-18.6" y="23.4" width="190" height="148" rx="15.5" ry="15.5" transform="translate(173.8 21) rotate(90)"/><rect class="a" x="-17.7" y="24.3" width="188.2" height="146.2" rx="14.6" ry="14.6" transform="translate(173.8 21) rotate(90)"/><rect class="a" x="-16.9" y="25.1" width="186.6" height="144.6" rx="13.8" ry="13.8" transform="translate(173.8 21) rotate(90)"/><rect class="a" x="-16.2" y="25.8" width="185.2" height="143.2" rx="13.1" ry="13.1" transform="translate(173.8 21) rotate(90)"/><rect class="a" x="-15.6" y="26.4" width="184" height="142" rx="12.5" ry="12.5" transform="translate(173.8 21) rotate(90)"/><rect class="b" x="5.9" y="5.9" width="141" height="183" rx="12" ry="12"/><path class="c" d="M90.22,87.15C84.86,97.78,73.32,116.62,54.45,128a4,4,0,0,0,0,6.8,96.92,96.92,0,0,1,35.77,39.88,4,4,0,0,0,7.21,0,96.92,96.92,0,0,1,35.76-39.88,4,4,0,0,0,0-6.8c-18.87-11.38-30.41-30.23-35.76-40.85A4,4,0,0,0,90.22,87.15Z"/><path class="c" d="M32,72.59c-2.4,4.26-7.12,11.12-14.55,15.59a2.18,2.18,0,0,0,0,3.74,40.92,40.92,0,0,1,14.55,15.14,2.19,2.19,0,0,0,3.87,0A40.92,40.92,0,0,1,50.37,91.92a2.18,2.18,0,0,0,0-3.74C42.9,83.71,38.18,76.85,35.79,72.59A2.18,2.18,0,0,0,32,72.59Z"/><path class="c" d="M28.89,54.35v.07c.43,3.28,2.09,4.69,4.39,4.69,3.11,0,6.22-3.28,6.27-13.26l-.11-.13a7.65,7.65,0,0,1-7.23,4c-7.29,0-11.52-6.9-11.52-14.87,0-11.65,5.52-17.08,13-17.08,13.18,0,13.4,17.75,13.4,24.44,0,18.42-7,24.38-13.83,24.38-6.48,0-11.15-4.69-11.79-12.26Zm4.93-12.12c2.63,0,5.52-2.34,5.52-8,0-5.42-1.88-8.77-5.73-8.77-1.93,0-5.41,1.21-5.41,8C28.2,40.69,31,42.23,33.83,42.23Z"/></svg>