<?xml version="1.0" encoding="utf-8"?>
<!-- Generator: Adobe Illustrator 23.0.0, SVG Export Plug-In . SVG Version: 6.00 Build 0)  -->
<svg version="1.1" id="圖層_1" xmlns="http://www.w3.org/2000/svg" xmlns:xlink="http://www.w3.org/1999/xlink" x="0px" y="0px"
	 viewBox="0 0 152.8 194.8" style="enable-background:new 0 0 152.8 194.8;" xml:space="preserve">
<style type="text/css">
	.st0{opacity:5.000000e-02;}
	.st1{fill:#FFFFFF;}
	.st2{fill-rule:evenodd;clip-rule:evenodd;}
</style>
<g>
	<g>
		<path class="st0" d="M17.9,194.8c-9.9,0-17.9-8-17.9-17.9v-159C0,8,8,0,17.9,0h117c9.9,0,17.9,8,17.9,17.9v159
			c0,9.9-8,17.9-17.9,17.9H17.9z"/>
		<path class="st0" d="M17.9,193.6c-9.2,0-16.7-7.5-16.7-16.7v-159c0-9.2,7.5-16.7,16.7-16.7h117c9.2,0,16.7,7.5,16.7,16.7v159
			c0,9.2-7.5,16.7-16.7,16.7H17.9z"/>
		<path class="st0" d="M17.9,192.4c-8.5,0-15.5-7-15.5-15.5v-159c0-8.5,7-15.5,15.5-15.5h117c8.5,0,15.5,7,15.5,15.5v159
			c0,8.5-7,15.5-15.5,15.5H17.9z"/>
		<path class="st0" d="M17.9,191.5c-8.1,0-14.6-6.5-14.6-14.6v-159c0-8.1,6.5-14.6,14.6-14.6h117c8.1,0,14.6,6.5,14.6,14.6v159
			c0,8.1-6.5,14.6-14.6,14.6H17.9z"/>
		<path class="st0" d="M17.9,190.7c-7.6,0-13.8-6.2-13.8-13.8v-159c0-7.6,6.2-13.8,13.8-13.8h117c7.6,0,13.8,6.2,13.8,13.8v159
			c0,7.6-6.2,13.8-13.8,13.8H17.9z"/>
		<path class="st0" d="M17.9,190c-7.2,0-13.1-5.9-13.1-13.1v-159c0-7.2,5.9-13.1,13.1-13.1h117c7.2,0,13.1,5.9,13.1,13.1v159
			c0,7.2-5.9,13.1-13.1,13.1H17.9z"/>
		<path class="st0" d="M17.9,189.4c-6.9,0-12.5-5.6-12.5-12.5v-159C5.4,11,11,5.4,17.9,5.4h117c6.9,0,12.5,5.6,12.5,12.5v159
			c0,6.9-5.6,12.5-12.5,12.5H17.9z"/>
		<path class="st1" d="M134.9,188.9h-117c-6.6,0-12-5.4-12-12v-159c0-6.6,5.4-12,12-12h117c6.6,0,12,5.4,12,12v159
			C146.9,183.5,141.5,188.9,134.9,188.9z"/>
	</g>
	<path class="st2" d="M113.2,112.5c-8.1-9.3-14.1-18.2-17.3-23.4c-1.2-1.9-4.1-1.9-5.3,0c-3.2,5.1-9.1,14.1-17.3,23.4
		c-6.7,7.6-21.4,20.1-21.4,33c0,3.2,0.8,6.2,2.2,8.8c1.3,2.8,3.4,5,5.8,6.7c3.5,2.6,7.9,4.1,12.7,4.1c8.2,0,15.2-4.5,18.6-11
		c0.5-0.8,0.9-1.7,1.1-2.6c0,0.4-2.9,11.1-10.2,20.9c-1,1.3,0,3.1,1.7,3.1h18.7c1.7,0,2.7-1.8,1.7-3.1c-7.3-9.8-9.8-20.5-9.7-21
		c0.4,1.9,1.4,3.7,2.7,5.3c4.1,5.6,11.2,9.1,19.2,8.4c8.2-0.8,15.1-6.2,17.6-13.6C139.6,134.9,120.3,120.5,113.2,112.5z"/>
	<path class="st2" d="M41.9,80.2c-3.3-3.8-5.8-7.5-7.4-10c-0.8-1.2-2.6-1.2-3.4,0c-1.5,2.4-4.1,6.1-7.4,10c-3,3.5-9.7,9.3-9.7,15.2
		c0,1.5,0.4,2.9,1,4.1c0.6,1.3,1.5,2.3,2.7,3.1c1.6,1.2,3.6,1.9,5.8,1.9c3.7,0,6.9-2.1,8.5-5.1c0.2-0.4,0.4-0.8,0.5-1.2
		c0,0.2-1.2,5-4.3,9.5c-0.6,0.8,0.1,2,1.1,2h7.1c1,0,1.7-1.1,1.1-2c-3-4.5-4.1-9.3-4.1-9.5c0.2,0.9,0.6,1.7,1.2,2.4
		c1.9,2.7,5.3,4.3,9.1,3.8c3.5-0.5,6.4-2.8,7.6-6C54.1,90.7,45.1,83.9,41.9,80.2z"/>
	<g>
		<g>
			<path d="M45.3,51.3c0,10-4.2,14.9-12,14.9c-12.8,0-12.8-10-12.8-19H28c0,7.4,0.4,11.1,4.7,11.1c4.2,0,4.5-3.3,4.5-6.9V17.7h8
				V51.3z"/>
		</g>
	</g>
</g>
</svg>
