<svg xmlns="http://www.w3.org/2000/svg" viewBox="0 0 152.8 194.8"><defs><style>.a{opacity:0.05;}.b{fill:#fff;}.c{fill-rule:evenodd;}</style></defs><title>41</title><rect class="a" x="-21" y="21" width="194.8" height="152.8" rx="17.9" ry="17.9" transform="translate(173.8 21) rotate(90)"/><rect class="a" x="-19.8" y="22.2" width="192.4" height="150.4" rx="16.7" ry="16.7" transform="translate(173.8 21) rotate(90)"/><rect class="a" x="-18.6" y="23.4" width="190" height="148" rx="15.5" ry="15.5" transform="translate(173.8 21) rotate(90)"/><rect class="a" x="-17.7" y="24.3" width="188.2" height="146.2" rx="14.6" ry="14.6" transform="translate(173.8 21) rotate(90)"/><rect class="a" x="-16.9" y="25.1" width="186.6" height="144.6" rx="13.8" ry="13.8" transform="translate(173.8 21) rotate(90)"/><rect class="a" x="-16.2" y="25.8" width="185.2" height="143.2" rx="13.1" ry="13.1" transform="translate(173.8 21) rotate(90)"/><rect class="a" x="-15.6" y="26.4" width="184" height="142" rx="12.5" ry="12.5" transform="translate(173.8 21) rotate(90)"/><rect class="b" x="5.9" y="5.9" width="141" height="183" rx="12" ry="12"/><path class="c" d="M112.95,112.46A178.73,178.73,0,0,1,95.65,89.09a3.13,3.13,0,0,0-5.25,0,178.59,178.59,0,0,1-17.3,23.37c-6.65,7.56-21.4,20.11-21.4,33a18.66,18.66,0,0,0,2.24,8.84,16.21,16.21,0,0,0,5.84,6.67A21.38,21.38,0,0,0,72.43,165,20.84,20.84,0,0,0,91,154a11.24,11.24,0,0,0,1.14-2.62A63.93,63.93,0,0,1,82,172.31a2,2,0,0,0,1.69,3.07h18.7a2,2,0,0,0,1.7-3.07c-7.28-9.82-9.81-20.48-9.73-21a12.11,12.11,0,0,0,2.74,5.27,21.17,21.17,0,0,0,19.19,8.35,20.61,20.61,0,0,0,17.62-13.63C139.39,134.94,120.06,120.54,112.95,112.46Z"/><path class="c" d="M42.82,80.16a82.49,82.49,0,0,1-7.36-10,2,2,0,0,0-3.42,0,82.43,82.43,0,0,1-7.36,10c-3,3.49-9.75,9.28-9.75,15.22a8.7,8.7,0,0,0,1,4.08,7.45,7.45,0,0,0,2.66,3.08,9.65,9.65,0,0,0,5.76,1.89,9.48,9.48,0,0,0,8.48-5.09,5.22,5.22,0,0,0,.52-1.21,30.66,30.66,0,0,1-4.26,9.48,1.26,1.26,0,0,0,1.11,2H37.3a1.26,1.26,0,0,0,1.11-2,27,27,0,0,1-4.05-9.52,5.62,5.62,0,0,0,1.25,2.43,9.61,9.61,0,0,0,9.08,3.81,9.4,9.4,0,0,0,7.58-6C55.09,90.71,46.1,83.94,42.82,80.16Z"/><path d="M30.73,37.92h1.18c2.25,0,6.38-.27,6.38-6.43,0-1.74-.64-6.1-4.77-6.1-5.14,0-5.14,6.1-5.14,7.77h-7c0-8.91,4-15.27,12.59-15.27,5.09,0,11.79,3.22,11.79,13.26,0,4.82-2.41,7.84-4.55,9v.13C42.57,40.8,47,43.28,47,51.39c0,9-5.31,15.34-13,15.34-3.59,0-13.24-1-13.24-15.88H28.1l-.05.07c0,2.55.54,8.31,5.57,8.31,3,0,5.63-2.55,5.63-7.84,0-6.5-5-6.77-8.52-6.77Z"/></svg>