<svg xmlns="http://www.w3.org/2000/svg" viewBox="0 0 152.8 194.8"><defs><style>.a{opacity:0.05;}.b{fill:#fff;}.c{fill-rule:evenodd;}</style></defs><title>44</title><rect class="a" x="-21" y="21" width="194.8" height="152.8" rx="17.9" ry="17.9" transform="translate(173.8 21) rotate(90)"/><rect class="a" x="-19.8" y="22.2" width="192.4" height="150.4" rx="16.7" ry="16.7" transform="translate(173.8 21) rotate(90)"/><rect class="a" x="-18.6" y="23.4" width="190" height="148" rx="15.5" ry="15.5" transform="translate(173.8 21) rotate(90)"/><rect class="a" x="-17.7" y="24.3" width="188.2" height="146.2" rx="14.6" ry="14.6" transform="translate(173.8 21) rotate(90)"/><rect class="a" x="-16.9" y="25.1" width="186.6" height="144.6" rx="13.8" ry="13.8" transform="translate(173.8 21) rotate(90)"/><rect class="a" x="-16.2" y="25.8" width="185.2" height="143.2" rx="13.1" ry="13.1" transform="translate(173.8 21) rotate(90)"/><rect class="a" x="-15.6" y="26.4" width="184" height="142" rx="12.5" ry="12.5" transform="translate(173.8 21) rotate(90)"/><rect class="b" x="5.9" y="5.9" width="141" height="183" rx="12" ry="12"/><path class="c" d="M113.19,112.46A178.73,178.73,0,0,1,95.9,89.09a3.13,3.13,0,0,0-5.25,0,178.59,178.59,0,0,1-17.3,23.37c-6.65,7.56-21.4,20.11-21.4,33a18.66,18.66,0,0,0,2.24,8.84A16.21,16.21,0,0,0,60,160.95,21.38,21.38,0,0,0,72.68,165,20.84,20.84,0,0,0,91.3,154a11.24,11.24,0,0,0,1.14-2.62,63.93,63.93,0,0,1-10.2,20.9,2,2,0,0,0,1.69,3.07h18.7a2,2,0,0,0,1.7-3.07c-7.28-9.82-9.81-20.48-9.73-21a12.11,12.11,0,0,0,2.74,5.27,21.17,21.17,0,0,0,19.19,8.35,20.61,20.61,0,0,0,17.62-13.63C139.64,134.94,120.31,120.54,113.19,112.46Z"/><path class="c" d="M42.46,80.16a82.49,82.49,0,0,1-7.36-10,2,2,0,0,0-3.42,0,82.43,82.43,0,0,1-7.36,10c-3,3.49-9.75,9.28-9.75,15.22a8.7,8.7,0,0,0,1,4.08,7.45,7.45,0,0,0,2.66,3.08A9.65,9.65,0,0,0,24,104.44a9.48,9.48,0,0,0,8.48-5.09A5.22,5.22,0,0,0,33,98.14a30.66,30.66,0,0,1-4.26,9.48,1.26,1.26,0,0,0,1.11,2h7.09a1.26,1.26,0,0,0,1.11-2A27,27,0,0,1,34,98.1a5.62,5.62,0,0,0,1.25,2.43,9.61,9.61,0,0,0,9.08,3.81,9.4,9.4,0,0,0,7.58-6C54.72,90.71,45.74,83.94,42.46,80.16Z"/><path d="M38.4,29.64C38.19,27,36.8,25.12,34,25.12c-4.88,0-6,6.92-6.27,13l.11.13A7.57,7.57,0,0,1,35,34.36c7.88,0,11.63,7.52,11.63,14.57,0,10.31-5.09,17.23-12.43,17.23-11.52,0-13.77-12-13.77-23.75,0-9,1-24.75,14.15-24.75,1.55,0,5.9.73,7.77,3.06,2.09,2.53,2.84,3.93,3.54,8.91ZM33.63,41.81c-2.84,0-5.73,2.2-5.73,8.12,0,5.12,2.36,8.78,5.95,8.78,2.73,0,5.25-2.59,5.25-9C39.1,43.74,36,41.81,33.63,41.81Z"/></svg>