<svg xmlns="http://www.w3.org/2000/svg" viewBox="0 0 152.8 194.8"><defs><style>.a{opacity:0.05;}.b{fill:#fff;}</style></defs><title>1</title><rect class="a" x="-21" y="21" width="194.8" height="152.8" rx="17.9" ry="17.9" transform="translate(173.8 21) rotate(90)"/><rect class="a" x="-19.8" y="22.2" width="192.4" height="150.4" rx="16.7" ry="16.7" transform="translate(173.8 21) rotate(90)"/><rect class="a" x="-18.6" y="23.4" width="190" height="148" rx="15.5" ry="15.5" transform="translate(173.8 21) rotate(90)"/><rect class="a" x="-17.7" y="24.3" width="188.2" height="146.2" rx="14.6" ry="14.6" transform="translate(173.8 21) rotate(90)"/><rect class="a" x="-16.9" y="25.1" width="186.6" height="144.6" rx="13.8" ry="13.8" transform="translate(173.8 21) rotate(90)"/><rect class="a" x="-16.2" y="25.8" width="185.2" height="143.2" rx="13.1" ry="13.1" transform="translate(173.8 21) rotate(90)"/><rect class="a" x="-15.6" y="26.4" width="184" height="142" rx="12.5" ry="12.5" transform="translate(173.8 21) rotate(90)"/><rect class="b" x="5.9" y="5.9" width="141" height="183" rx="12" ry="12"/><path d="M49,87.53A9.51,9.51,0,0,0,38.61,88c-.86.17-.37-.8-.37-.8,4.77-2.39,5-6.46,4.83-7.81-1.1-8.1-9.74-7.92-9.74-7.92s-8.65-.19-9.75,7.92c-.17,1.36.06,5.42,4.83,7.81,0,0,.49,1-.37.8a9.51,9.51,0,0,0-10.39-.45c-.94.53-7.27,5-2.93,12.2a9.58,9.58,0,0,0,9.78,4c1.81-.27,6.23-2.68,7-6.73,0,0,1,5.11-2.87,10.93a1.1,1.1,0,0,0,.93,1.69h7.47a1.1,1.1,0,0,0,.93-1.69C34.16,102.12,35.13,97,35.13,97c.79,4,5.22,6.46,7,6.73a9.58,9.58,0,0,0,9.78-4C56.28,92.55,49.94,88.06,49,87.53Z"/><path d="M117.67,122.41a21.52,21.52,0,0,0-14.29,4.17c-.52-.45.08-1.76.08-1.76,10.12-5.58,10.62-15.05,10.25-18.21-2.34-18.89-20.66-18.46-20.66-18.46s-18.36-.43-20.7,18.46c-.36,3.16.14,12.63,10.25,18.21,0,0,.61,1.32.08,1.76a21.52,21.52,0,0,0-14.29-4.17A21.64,21.64,0,1,0,90.67,150a13.66,13.66,0,0,0,.63-2.26s.33,11.65-8.78,24.95A1.83,1.83,0,0,0,84,175.5h18a1.83,1.83,0,0,0,1.52-2.86c-9.12-13.3-8.78-24.95-8.78-24.95A13.64,13.64,0,0,0,95.4,150a21.64,21.64,0,1,0,22.27-27.56Z"/><path d="M20.76,34.91c0-15.87,9.06-17.25,12.43-17.25,7.29,0,13.08,5.5,13.08,15.39,0,8.38-4.23,12.64-7.93,15.87-5,4.54-7.66,6.73-8.52,9H46.32v8.52h-26c.27-5.7.59-11.68,8.84-19.38,6.86-6.39,9.59-8.86,9.59-14.36,0-3.23-1.61-6.94-5.25-6.94-5.25,0-5.41,5.57-5.47,9.14Z"/></svg>