<svg xmlns="http://www.w3.org/2000/svg" viewBox="0 0 152.8 194.8"><defs><style>.a{opacity:0.05;}.b{fill:#fff;}.c{fill:#c00000;}</style></defs><title>28</title><rect class="a" x="-21" y="21" width="194.8" height="152.8" rx="17.9" ry="17.9" transform="translate(173.8 21) rotate(90)"/><rect class="a" x="-19.8" y="22.2" width="192.4" height="150.4" rx="16.7" ry="16.7" transform="translate(173.8 21) rotate(90)"/><rect class="a" x="-18.6" y="23.4" width="190" height="148" rx="15.5" ry="15.5" transform="translate(173.8 21) rotate(90)"/><rect class="a" x="-17.7" y="24.3" width="188.2" height="146.2" rx="14.6" ry="14.6" transform="translate(173.8 21) rotate(90)"/><rect class="a" x="-16.9" y="25.1" width="186.6" height="144.6" rx="13.8" ry="13.8" transform="translate(173.8 21) rotate(90)"/><rect class="a" x="-16.2" y="25.8" width="185.2" height="143.2" rx="13.1" ry="13.1" transform="translate(173.8 21) rotate(90)"/><rect class="a" x="-15.6" y="26.4" width="184" height="142" rx="12.5" ry="12.5" transform="translate(173.8 21) rotate(90)"/><rect class="b" x="5.9" y="5.9" width="141" height="183" rx="12" ry="12"/><path class="c" d="M124.82,97.76a19.71,19.71,0,0,0-4.37-2,16.73,16.73,0,0,0-4.11-.94c-.76-.06-1.48-.08-2.19-.08h-.24c-.6,0-1.19,0-1.75.08H112a18.29,18.29,0,0,0-9.59,3.48c-3,2.08-5.26,5.83-6.43,9.11a.78.78,0,0,1-1.48,0C92.39,100.07,85,94.7,76.22,94.7h-.31a27.41,27.41,0,0,0-2.88.07c-6.34.48-21.64,7.93-19.49,24.72.82,6.43,2.3,11.2,11.67,24,1.24,1.69,13.16,14.92,24.42,31a6.2,6.2,0,0,0,10.14,0c11.25-16,23.17-29.28,24.41-31,9.36-12.84,10.84-17.61,11.67-24C137.27,108.39,131,101.37,124.82,97.76Z"/><path class="c" d="M47.55,73.55a9,9,0,0,0-2-.92,7.6,7.6,0,0,0-1.87-.43c-.34,0-.67,0-1,0H42.6c-.27,0-.54,0-.8,0h-.07a8.31,8.31,0,0,0-4.36,1.58,8.88,8.88,0,0,0-3,4.23.32.32,0,0,1-.62,0,8.46,8.46,0,0,0-8.33-5.83h-.14a12.46,12.46,0,0,0-1.31,0c-2.88.22-9.84,3.6-8.86,11.23.37,2.92,1,5.09,5.3,10.92.48.66,4.53,5,8.9,11.13a5.53,5.53,0,0,0,9,0c4.37-6.11,8.42-10.47,8.9-11.13,4.25-5.83,4.92-8,5.3-10.92A9.62,9.62,0,0,0,47.55,73.55Z"/><path class="c" d="M30.73,37.92h1.18c2.25,0,6.38-.27,6.38-6.43,0-1.74-.64-6.1-4.77-6.1-5.14,0-5.14,6.1-5.14,7.77h-7c0-8.91,4-15.27,12.59-15.27,5.09,0,11.79,3.22,11.79,13.26,0,4.82-2.41,7.84-4.55,9v.13C42.57,40.8,47,43.28,47,51.39c0,9-5.31,15.34-13,15.34-3.59,0-13.24-1-13.24-15.88H28.1l-.05.07c0,2.55.54,8.31,5.57,8.31,3,0,5.63-2.55,5.63-7.84,0-6.5-5-6.77-8.52-6.77Z"/></svg>