<svg xmlns="http://www.w3.org/2000/svg" viewBox="0 0 152.8 194.8"><defs><style>.a{opacity:0.05;}.b{fill:#fff;}.c{fill:#c00000;}</style></defs><title>33</title><rect class="a" x="-21" y="21" width="194.8" height="152.8" rx="17.9" ry="17.9" transform="translate(173.8 21) rotate(90)"/><rect class="a" x="-19.8" y="22.2" width="192.4" height="150.4" rx="16.7" ry="16.7" transform="translate(173.8 21) rotate(90)"/><rect class="a" x="-18.6" y="23.4" width="190" height="148" rx="15.5" ry="15.5" transform="translate(173.8 21) rotate(90)"/><rect class="a" x="-17.7" y="24.3" width="188.2" height="146.2" rx="14.6" ry="14.6" transform="translate(173.8 21) rotate(90)"/><rect class="a" x="-16.9" y="25.1" width="186.6" height="144.6" rx="13.8" ry="13.8" transform="translate(173.8 21) rotate(90)"/><rect class="a" x="-16.2" y="25.8" width="185.2" height="143.2" rx="13.1" ry="13.1" transform="translate(173.8 21) rotate(90)"/><rect class="a" x="-15.6" y="26.4" width="184" height="142" rx="12.5" ry="12.5" transform="translate(173.8 21) rotate(90)"/><rect class="b" x="5.9" y="5.9" width="141" height="183" rx="12" ry="12"/><path class="c" d="M124.82,97.76a19.71,19.71,0,0,0-4.37-2,16.73,16.73,0,0,0-4.11-.94c-.76-.06-1.48-.08-2.19-.08h-.24c-.6,0-1.19,0-1.75.08H112a18.29,18.29,0,0,0-9.59,3.48c-3,2.08-5.26,5.83-6.43,9.11a.78.78,0,0,1-1.48,0C92.39,100.07,85,94.7,76.22,94.7h-.31a27.41,27.41,0,0,0-2.88.07c-6.34.48-21.64,7.93-19.49,24.72.82,6.43,2.3,11.2,11.67,24,1.24,1.69,13.16,14.92,24.42,31a6.2,6.2,0,0,0,10.14,0c11.25-16,23.17-29.28,24.41-31,9.36-12.84,10.84-17.61,11.67-24C137.27,108.39,131,101.37,124.82,97.76Z"/><path class="c" d="M48.18,73.55a9,9,0,0,0-2-.92,7.6,7.6,0,0,0-1.87-.43c-.34,0-.67,0-1,0h-.11c-.27,0-.54,0-.8,0h-.07A8.31,8.31,0,0,0,38,73.79,8.88,8.88,0,0,0,35,78a.32.32,0,0,1-.62,0,8.46,8.46,0,0,0-8.33-5.83H26a12.46,12.46,0,0,0-1.31,0c-2.88.22-9.84,3.6-8.86,11.23.37,2.92,1,5.09,5.3,10.92.48.66,4.53,5,8.9,11.13a5.53,5.53,0,0,0,9,0c4.37-6.11,8.42-10.47,8.9-11.13,4.25-5.83,4.92-8,5.3-10.92A9.62,9.62,0,0,0,48.18,73.55Z"/><path class="c" d="M34.49,66.61c-9.81,0-13.18-8-13.18-14.5,0-2.42,0-8.73,5.79-12.09-3-1.88-4.61-4.9-4.61-9.33,0-8.12,5.2-13,11.84-13,7.88,0,12.06,5.84,12.06,12.42,0,4.1-1.34,7.59-4.39,9.6C45.64,42,47.67,45,47.67,51.17S44.57,66.61,34.49,66.61Zm-.11-22.49c-2.73,0-5.36,2.22-5.36,7.39,0,4.57,2.09,7.59,5.52,7.59,3.91,0,5.41-4.23,5.41-7.52S38.56,44.12,34.38,44.12Zm4.82-13c0-3.63-2-5.91-4.39-5.91-3.38,0-5.14,2.42-5.14,5.91,0,2.82,1.66,5.91,4.88,5.91C37.49,37,39.21,34.52,39.21,31.09Z"/></svg>